<svg xmlns="http://www.w3.org/2000/svg" viewBox="-8471 -7132 159.57 65">
  <defs>
    <style>
      .cls-1, .cls-2 {
        fill: #5e6f78;
      }

      .cls-2 {
        fill-rule: evenodd;
      }

      .cls-3 {
        fill: #e63916;
      }

      .cls-4 {
        fill: #1991d0;
      }
    </style>
  </defs>
  <g id="Gruppe_36" data-name="Gruppe 36" transform="translate(-8471 -7132)">
    <g id="Gruppe_33" data-name="Gruppe 33" transform="translate(0 31.538)">
      <path id="Pfad_1" data-name="Pfad 1" class="cls-1" d="M23.8,82.4c0-6.666-3.489-11.9-11.273-11.9C2.595,70.5,0,79.492,0,87.231c0,8.365,2.684,16.731,12.526,16.731,7.694,0,11.273-5.368,11.273-12.436h-7.6c-.179,4.026-.492,6.487-3.489,6.487-3.8,0-3.937-4.116-3.937-10.736,0-5.994.492-10.826,3.937-10.826,2.953,0,3.489,3.758,3.489,5.95Z" transform="translate(0 -70.5)"/>
      <path id="Pfad_2" data-name="Pfad 2" class="cls-2" d="M59.4,104.109h6.755l1.387-6.531h7.471l1.253,6.531H84.5L77.607,71.9H66.96L59.4,104.109Zm12.034-25.32h.089L73.894,91.9H68.66l2.774-13.107Z" transform="translate(-32.827 -71.274)"/>
      <path id="Pfad_3" data-name="Pfad 3" class="cls-2" d="M124.3,104.109h13.063c6.4,0,10.557-3.445,10.557-8.858,0-4.25-2.46-6.934-6.666-7.963V87.2a7.652,7.652,0,0,0,6.084-7.6c0-4.429-3.579-7.694-9.439-7.694H124.345v32.209Zm8.142-14h3a3.694,3.694,0,0,1,4.071,3.981c0,3.31-2.326,4.071-4.071,4.071h-3V90.107Zm0-12.526H135.3c1.834,0,3.892.492,3.892,3.579,0,1.879-1.118,3.489-4.071,3.489h-2.684V77.581Z" transform="translate(-68.694 -71.274)"/>
      <path id="Pfad_4" data-name="Pfad 4" class="cls-1" d="M187.4,104.109h20.265V97.623H195.542v-6.71h8.142V84.649h-8.142V78.163h12.123V71.9H187.4Z" transform="translate(-103.567 -71.274)"/>
      <path id="Pfad_5" data-name="Pfad 5" class="cls-2" d="M243.1,104.109h8.142V90.152h2.729L258,104.109h8.052l-5.368-15.657a7.933,7.933,0,0,0,5.368-7.426c0-6.352-4.7-9.126-10.826-9.126H243.1v32.209Zm8.142-26.259h1.342c2.729,0,5.279.268,5.279,3.624,0,2.595-1.968,3.534-5.055,3.534h-1.566V77.85Z" transform="translate(-134.349 -71.274)"/>
      <path id="Pfad_6" data-name="Pfad 6" class="cls-2" d="M300.7,87.231c0,8.231,2.953,16.731,12.526,16.731s12.526-8.5,12.526-16.731S322.8,70.5,313.226,70.5,300.7,79,300.7,87.231Zm8.768,0c0-6.352,0-10.781,3.758-10.781s3.758,4.429,3.758,10.781,0,10.781-3.758,10.781-3.758-4.429-3.758-10.781Z" transform="translate(-166.182 -70.5)"/>
    </g>
    <path id="Pfad_7" data-name="Pfad 7" class="cls-3" d="M7.2,26.125S23.707,0,56.364,0s49.522,26.125,49.522,26.125H87.678a46.4,46.4,0,0,0-62.45,0Z" transform="translate(-3.979)"/>
    <g id="Gruppe_34" data-name="Gruppe 34" transform="translate(57.574)">
      <path id="Pfad_8" data-name="Pfad 8" class="cls-4" d="M128.7,49.171h18.073s.492-.492,1.432-1.342A44.7,44.7,0,0,0,134.829,41.7,51.659,51.659,0,0,0,128.7,49.171Z" transform="translate(-128.7 -23.045)"/>
      <path id="Pfad_9" data-name="Pfad 9" class="cls-4" d="M209.31,0A57.755,57.755,0,0,0,185.6,5.01a63.11,63.11,0,0,1,8.276,5.592q2.953,2.349,5.234,4.563a45.375,45.375,0,0,1,10.2-1.118,46.288,46.288,0,0,1,31.27,12.078h18.207C258.831,26.125,242.011,0,209.31,0Z" transform="translate(-160.146)"/>
    </g>
  </g>
</svg>
