<svg viewBox="0 0 85 27" fill="none" xmlns="http://www.w3.org/2000/svg" class="header__logo">
          <path d="M71.761 0.731346H65.3369L61.0542 9.29883L65.8193 9.29983L68.5661 3.8121L79.8574 26.4338H84.6225L71.761 0.731346Z" fill="#0303B8"></path>
          <path d="M69.62 11.4436L13.9448 11.4416L11.8034 15.7253H20.3689V22.1509H12.777C8.08278 22.1509 4.26368 18.3246 4.26368 13.5865C4.26368 8.84841 8.08278 5.01489 12.777 5.01489H22.5022V0.729073L12.777 0.729074C5.73173 0.729074 0 6.49694 0 13.5865C0 20.6761 5.73173 26.4347 12.777 26.4347H24.6516V15.7253H31.0756V26.4347H48.2064L50.3478 22.1509H35.3583V15.7253H57.8157L52.4891 26.4347H57.2519L62.606 15.7253H71.7613L69.62 11.4436Z" fill="#0303B8"></path>
          <path d="M35.3584 5.01396L50.3476 5.01504V0.731292L31.0732 0.728142L31.0736 9.29977H35.3584V5.01396Z" fill="#0303B8"></path>
        </svg>