<?xml version="1.0" encoding="UTF-8"?>
<svg width="362px" height="50px" viewBox="0 0 362 50" version="1.1" xmlns="http://www.w3.org/2000/svg" xmlns:xlink="http://www.w3.org/1999/xlink">
    <!-- Generator: Sketch 63.1 (92452) - https://sketch.com -->
    <title>logo/logo-mycom</title>
    <desc>Created with Sketch.</desc>
    <defs>
        <polygon id="path-1" points="0.898505263 0.778987528 66.6731105 0.778987528 66.6731105 49.3030081 0.898505263 49.3030081"></polygon>
    </defs>
    <g id="logo/logo-mycom" stroke="none" stroke-width="1" fill="none" fill-rule="evenodd">
        <g id="Group-12">
            <path d="M37.3310354,17.9263429 C40.4622809,12.3727207 43.7049775,6.73179423 46.3851114,1 L74.2425821,1 L74.2425821,48 L52.1328045,48 L52.1328045,31.4674173 C52.1328045,31.4674173 45.4421996,42.5158649 42.2030411,48 L26.1859242,48 L16.4330674,31.1182001 L16.4330674,48 L0.242582139,48 L0.242582139,1 L27.9266845,1 L37.3310354,17.9263429 Z" id="Fill-1" fill="#D0003B"></path>
            <path d="M324.326615,17.9263429 C327.465012,12.3727207 330.700709,6.73179423 333.386215,1 L361.242582,1 L361.242582,48 L339.130507,48 L339.130507,31.4674173 C339.130507,31.4674173 332.439742,42.5158649 329.202275,48 L313.184775,48 L303.436993,31.1182001 L303.436993,48 L287.242582,48 L287.242582,1 L314.927346,1 L324.326615,17.9263429 Z" id="Fill-3" fill="#D0003B"></path>
            <path d="M106.621643,1 L118.627212,12.3727207 C122.091979,8.96963494 126.5759,4.64718147 130.286484,1 L153.242582,1 L126.929374,30.0776754 C127.035237,36.0500019 126.929374,48 126.929374,48 L103.973276,48 L103.973276,29.0371508 L76.2425821,1 L106.621643,1 Z" id="Fill-5" fill="#D0003B"></path>
            <path d="M249.742582,38.2376529 C254.677189,38.2376529 258.683768,32.5351816 258.683768,25.4991109 C258.683768,18.4630402 254.677189,12.7570127 249.742582,12.7570127 C244.804406,12.7570127 240.796042,18.4630402 240.796042,25.4991109 C240.796042,32.5351816 244.804406,38.2376529 249.742582,38.2376529 M216.242582,25.4991109 C216.242582,11.9693 231.237361,1 249.742582,1 C268.242449,1 283.242582,11.9693 283.242582,25.4991109 C283.242582,39.0324781 268.242449,50 249.742582,50 C231.237361,50 216.242582,39.0324781 216.242582,25.4991109" id="Fill-7" fill="#D0003B"></path>
            <g id="Group-11" transform="translate(144.242582, 0.000000)">
                <mask id="mask-2" fill="white">
                    <use xlink:href="#path-1"></use>
                </mask>
                <g id="Clip-10"></g>
                <path d="M42.4226368,29.3835363 C41.2959789,34.4969626 37.9459789,37.6541159 33.9965053,37.6541159 C29.1160842,37.6541159 25.1648474,32.0071607 25.1648474,25.0395891 C25.1648474,18.0720176 29.1160842,12.4215407 33.9965053,12.4215407 C37.9459789,12.4215407 41.2959789,16.0981365 42.4226368,21.2115627 L66.6731105,21.2115627 C64.1500316,9.65000734 50.4820316,0.778987528 33.9965053,0.778987528 C15.7160842,0.778987528 0.898505263,11.6414967 0.898505263,25.0395891 C0.898505263,38.442964 15.7160842,49.3037124 33.9965053,49.3037124 C49.9901105,49.3037124 63.3336895,40.4432575 66.4209789,29.3835363 L42.4226368,29.3835363 Z" id="Fill-9" fill="#D0003B" mask="url(#mask-2)"></path>
            </g>
        </g>
    </g>
</svg>