<svg id="Layer_1" data-name="Layer 1" xmlns="http://www.w3.org/2000/svg" viewBox="0 0 1524.23 152.65"><defs><style>.cls-1{fill:#fff;}.cls-2{fill:#6dcff6;}</style></defs><title>Termovent-logo</title><path class="cls-1" d="M1167.49,149H1064a25.44,25.44,0,0,1-18.36-7.67,24.39,24.39,0,0,1-7.85-18V8.34l129.73-.11v32h-90.81V59.41h90.81v32h-90.81v19.19h90.81Zm214-140.74h142.7V46.62h-51.89V149h-38.92V46.62h-51.9Zm-531.86,0L934,161.77,1018.31,8.24H976.15L934,85,891.84,8.24ZM797.78,46.62H713.47v64h84.32ZM674.55,34.09A24.75,24.75,0,0,1,682.32,16,25.07,25.07,0,0,1,700.6,8.24h110A25.07,25.07,0,0,1,828.9,16a24.75,24.75,0,0,1,7.77,18.11v89a24.75,24.75,0,0,1-7.77,18.1A25.07,25.07,0,0,1,810.63,149h-110a25.09,25.09,0,0,1-18.28-7.74,24.76,24.76,0,0,1-7.77-18.1ZM1206.41,149V8.24h123.13A25.07,25.07,0,0,1,1347.81,16a24.75,24.75,0,0,1,7.77,18.11V149h-38.89V46.62h-71.37V149Zm-765.36,0V8.49l168.53-.26A25.1,25.1,0,0,1,627.87,16a24.75,24.75,0,0,1,7.77,18.11V149H596.71V46.62H557.8V149H518.89V46.62H480V149Zm-142.69,0H194.84a25.44,25.44,0,0,1-18.36-7.67,24.39,24.39,0,0,1-7.85-18V8.34l129.72-.11v32H207.55V59.41h90.81v32H207.55v19.19h90.81ZM0,8.24H90.81V149H51.89V46.62H0ZM337.28,149V34.09A24.75,24.75,0,0,1,345,16a25.09,25.09,0,0,1,18.28-7.74h51.78V46.62H376.19V149Z"/><rect class="cls-2" x="110.26" y="8.24" width="38.92" height="38.39"/></svg>